<?xml version="1.0" encoding="UTF-8" standalone="no"?>
<svg
   xmlns:dc="http://purl.org/dc/elements/1.1/"
   xmlns:cc="http://creativecommons.org/ns#"
   xmlns:rdf="http://www.w3.org/1999/02/22-rdf-syntax-ns#"
   xmlns:svg="http://www.w3.org/2000/svg"
   xmlns="http://www.w3.org/2000/svg"
   xmlns:sodipodi="http://sodipodi.sourceforge.net/DTD/sodipodi-0.dtd"
   xmlns:inkscape="http://www.inkscape.org/namespaces/inkscape"
   sodipodi:docname="favicon.svg"
   inkscape:version="1.0 (4035a4fb49, 2020-05-01)"
   inkscape:export-ydpi="96"
   inkscape:export-xdpi="96"
   inkscape:export-filename="/home/eazel7/comunistagran_512.png"
   id="svg900"
   version="1.1"
   viewBox="0 0 135.46666 135.46667"
   height="512"
   width="512">
  <defs
     id="defs894" />
  <sodipodi:namedview
     inkscape:window-maximized="1"
     inkscape:window-y="0"
     inkscape:window-x="0"
     inkscape:window-height="1004"
     inkscape:window-width="2560"
     units="px"
     showgrid="false"
     inkscape:document-rotation="0"
     inkscape:current-layer="layer1"
     inkscape:document-units="mm"
     inkscape:cy="505.51131"
     inkscape:cx="375.30011"
     inkscape:zoom="0.7"
     inkscape:pageshadow="2"
     inkscape:pageopacity="0.0"
     borderopacity="1.0"
     bordercolor="#666666"
     pagecolor="#ffffff"
     id="base" />
  <metadata
     id="metadata897">
    <rdf:RDF>
      <cc:Work
         rdf:about="">
        <dc:format>image/svg+xml</dc:format>
        <dc:type
           rdf:resource="http://purl.org/dc/dcmitype/StillImage" />
        <dc:title></dc:title>
      </cc:Work>
    </rdf:RDF>
  </metadata>
  <g
     id="layer1"
     inkscape:groupmode="layer"
     inkscape:label="Layer 1">
    <g
       transform="matrix(6.2421064,0,0,6.2421064,-2191.3362,-2019.4354)"
       id="g1502">
      <path
         d="m 360.43121,324.83227 c -3.00599,0.17159 -5.6502,2.55748 -6.27539,5.48047 -0.39418,1.59588 -0.29289,3.46153 -0.0995,5.15715 0.609,3.3965 2.66222,6.83248 6.01136,8.10121 3.01101,1.0297 6.57463,-0.29051 8.23644,-2.99594 1.87812,-2.86767 2.02668,-6.63056 0.97281,-9.82687 -0.91295,-2.77398 -3.33343,-4.88269 -6.13034,-5.62139 -0.87998,-0.24757 -1.80272,-0.34834 -2.71537,-0.29463 z"
         style="fill:#ffffff;stroke-width:0.174232"
         id="path1486"
         sodipodi:nodetypes="sccccccss" />
      <path
         id="path1787"
         style="fill:#000000;stroke-width:0.174232"
         d="m 360.43121,324.83227 c -3.00599,0.17159 -5.6502,2.55748 -6.27539,5.48047 -0.39418,1.59588 -0.29289,3.46153 -0.0995,5.15715 0.609,3.3965 2.66222,6.83248 6.01136,8.10121 3.01101,1.0297 6.57463,-0.29051 8.23644,-2.99594 1.87812,-2.86767 2.02668,-6.63056 0.97281,-9.82687 -0.91295,-2.77398 -3.33343,-4.88269 -6.13034,-5.62139 -0.87998,-0.24757 -1.80272,-0.34834 -2.71537,-0.29463 z m 0.14258,2.66211 c 2.57149,0.0169 4.54739,2.01531 6,3.92578 1.85381,2.70297 1.61935,6.85632 -0.93164,9.04297 -1.85244,1.50021 -4.915,1.75188 -6.63867,-0.082 -1.76445,-1.82576 -2.76935,-4.37066 -2.84375,-6.90078 -0.0907,-2.35433 1.06059,-5.04911 3.44629,-5.81855 0.31141,-0.10335 0.64065,-0.15372 0.96777,-0.16739 z" />
      <path
         id="path1815"
         style="fill:#000000;stroke-width:0.0851321"
         d="m 360.23232,339.7362 c -0.0936,-0.0518 -0.54149,-0.30054 -0.99521,-0.55271 l -0.82494,-0.45851 0.47242,-0.65784 c 0.25983,-0.36181 0.60586,-0.92251 0.76896,-1.24598 0.26487,-0.52533 0.28151,-0.59654 0.15586,-0.66686 -0.35663,-0.19959 -0.73981,-0.62825 -0.95707,-1.07068 -0.22056,-0.44912 -0.23733,-0.55666 -0.23479,-1.50526 0.005,-1.80895 0.49261,-2.79061 1.64312,-3.30692 0.71969,-0.32298 1.12849,-0.3793 2.95127,-0.40669 l 1.61751,-0.0243 0.0133,0.84737 c 0.038,2.42786 0.13148,4.85104 0.24276,6.29582 0.0685,0.88963 0.12514,1.73714 0.12582,1.88338 l 0.001,0.26586 -0.78747,0.14137 c -0.43311,0.0777 -0.90802,0.16274 -1.05535,0.1889 -0.25643,0.0455 -0.26994,0.0336 -0.31621,-0.27954 -0.0266,-0.17988 -0.0735,-0.81552 -0.10417,-1.41249 l -0.0559,-1.08543 -0.309,0.003 -0.30901,0.003 -0.88424,1.5719 c -0.48634,0.86458 -0.90774,1.57078 -0.93646,1.56935 -0.0287,-0.002 -0.12883,-0.045 -0.22248,-0.0968 z m 2.67723,-5.20011 c -0.002,-0.0585 -0.0712,-0.60444 -0.15292,-1.21314 l -0.14849,-1.10671 -0.56287,0.006 c -0.85796,0.01 -1.22066,0.32083 -1.31641,1.1293 -0.11055,0.93342 0.30232,1.26205 1.61048,1.28189 0.40974,0.006 0.57337,-0.0217 0.57021,-0.0977 z" />
    </g>
  </g>
</svg>
