<?xml version="1.0" encoding="UTF-8" standalone="no"?>
<svg
   xmlns:dc="http://purl.org/dc/elements/1.1/"
   xmlns:cc="http://creativecommons.org/ns#"
   xmlns:rdf="http://www.w3.org/1999/02/22-rdf-syntax-ns#"
   xmlns:svg="http://www.w3.org/2000/svg"
   xmlns="http://www.w3.org/2000/svg"
   xmlns:sodipodi="http://sodipodi.sourceforge.net/DTD/sodipodi-0.dtd"
   xmlns:inkscape="http://www.inkscape.org/namespaces/inkscape"
   width="470.026"
   height="53.077999"
   viewBox="0 0 124.36105 14.043554"
   version="1.1"
   id="svg8"
   inkscape:export-filename="/home/eazel7/comunistagran.png"
   inkscape:export-xdpi="96"
   inkscape:export-ydpi="96"
   sodipodi:docname="logo.svg"
   inkscape:version="1.0 (4035a4fb49, 2020-05-01)">
  <defs
     id="defs2" />
  <sodipodi:namedview
     id="base"
     pagecolor="#ffffff"
     bordercolor="#666666"
     borderopacity="1.0"
     inkscape:pageopacity="0.0"
     inkscape:pageshadow="2"
     inkscape:zoom="3.2"
     inkscape:cx="277.33951"
     inkscape:cy="56.273818"
     inkscape:document-units="mm"
     inkscape:current-layer="layer1"
     inkscape:document-rotation="0"
     showgrid="false"
     inkscape:window-width="2560"
     inkscape:window-height="1004"
     inkscape:window-x="0"
     inkscape:window-y="0"
     inkscape:window-maximized="1"
     units="px" />
  <metadata
     id="metadata5">
    <rdf:RDF>
      <cc:Work
         rdf:about="">
        <dc:format>image/svg+xml</dc:format>
        <dc:type
           rdf:resource="http://purl.org/dc/dcmitype/StillImage" />
        <dc:title></dc:title>
      </cc:Work>
    </rdf:RDF>
  </metadata>
  <g
     inkscape:label="Layer 1"
     inkscape:groupmode="layer"
     id="layer1">
    <g
       id="g883">
      <g
         id="g866">
        <g
           id="g1834"
           transform="matrix(0.24131932,0,0,0.24131932,54.542026,263.67224)">
          <path
             style="fill:#000000;stroke-width:0.352778"
             d="m -196.48142,-1047.2483 c -1.68457,-0.217 -3.18603,-0.5202 -3.33657,-0.6737 -0.22296,-0.2274 -3.72135,-39.4604 -3.53451,-39.6382 0.17553,-0.1669 9.45225,0.5125 9.6463,0.7066 0.12866,0.1286 0.32538,3.4474 0.43717,7.3751 l 0.20325,7.1412 1.91613,-2.293 c 1.95821,-2.3435 5.86972,-8.1875 8.30853,-12.4135 l 1.36153,-2.3593 0.804,0.6324 c 0.44221,0.3479 2.02161,1.7696 3.50979,3.1594 l 2.70579,2.5269 -2.17918,3.3048 c -1.19855,1.8176 -3.19466,4.6988 -4.4358,6.4025 l -2.25663,3.0977 1.33796,1.6169 c 2.14529,2.5925 6.9587,10.165 10.14759,15.9642 0.12627,0.2296 -5.86752,2.2143 -7.93753,2.6283 -1.00989,0.202 -1.07684,0.1187 -3.19452,-3.9749 -1.97753,-3.8227 -5.39645,-8.944 -5.97062,-8.9436 -0.13007,10e-5 -0.90677,0.7785 -1.726,1.7298 l -1.48951,1.7296 0.68878,5.7667 c 0.37883,3.1717 0.69192,6.0446 0.69576,6.3841 0.008,0.7246 -0.92073,0.7458 -5.70171,0.13 z"
             id="path1785" />
          <path
             id="path1787"
             style="fill:#000000;stroke-width:0.352778"
             d="m -157.77188,-1047.3607 c -6.27447,-1.0549 -12.08718,-6.8526 -14.70592,-14.6678 -1.00462,-2.9981 -1.19097,-4.1037 -1.33086,-7.896 -0.18836,-5.1062 0.31734,-7.9037 2.04872,-11.3335 3.45598,-6.8463 11.16468,-10.2329 18.77828,-8.2498 10.08212,2.6261 15.86372,10.5237 15.8858,21.7 0.0212,10.7386 -6.0597,19.0676 -14.93105,20.451 -2.57761,0.4019 -3.33417,0.4014 -5.74497,0 z m 7.09813,-9.5881 c 3.34586,-1.7218 5.21895,-5.6689 4.91771,-10.3628 -0.21559,-3.3594 -1.3851,-5.7279 -4.30683,-8.7225 -4.69429,-4.8112 -8.97846,-5.6289 -12.18422,-2.3256 -4.14773,4.2739 -3.47902,13.1559 1.46102,19.4055 1.87599,2.3733 3.68336,3.2217 6.41141,3.0093 1.20363,-0.094 2.74421,-0.5115 3.70091,-1.0039 z" />
          <path
             style="fill:#000000;stroke-width:0.352778"
             d="m -95.257633,-1046.7176 c -0.6791,-0.066 -2.05154,-0.2085 -3.04987,-0.317 l -1.815137,-0.1974 -0.21858,-1.4785 c -0.12022,-0.8132 -0.452,-6.0293 -0.73729,-11.5914 -0.58572,-11.4194 -0.88128,-15.1108 -1.20988,-15.1108 -0.45504,0 -2.92566,6.8836 -3.78129,10.5354 -0.66877,2.8543 -0.92654,5.145 -1.07721,9.5729 l -0.19807,5.8209 -5.07886,0.091 c -3.84393,0.069 -5.10767,-0.017 -5.1973,-0.3528 -1.49009,-5.5822 -5.30779,-15.4329 -7.00714,-18.0802 l -0.68087,-1.0607 0.20367,4.4097 c 0.11203,2.4254 0.52588,7.1724 0.91969,10.5489 0.39381,3.3765 0.65792,6.1973 0.58692,6.2683 -0.15527,0.1552 -9.02861,-0.7949 -9.20216,-0.9854 -0.20074,-0.2203 -1.256,-17.1916 -1.61844,-26.0287 -0.28333,-6.9082 -0.43518,-8.3633 -0.92976,-8.9098 -0.69849,-0.7718 -0.81512,-0.6356 1.72699,-2.0165 1.11566,-0.606 2.90009,-1.5785 3.9654,-2.1612 l 1.93693,-1.0595 2.02571,2.7352 c 2.48407,3.354 7.8938,12.3427 9.78149,16.2528 0.76645,1.5875 1.48085,2.8865 1.58757,2.8865 0.10671,0 0.50931,-0.9868 0.89468,-2.1929 1.52463,-4.7716 8.06556,-16.9904 9.29001,-17.3542 1.65227,-0.4909 8.629397,-1.6569 9.019347,-1.5073 0.91489,0.3511 2.04628,9.658 2.51656,20.7016 0.24614,5.78 1.08561,16.1741 1.53143,18.9618 l 0.2962,1.8521 -1.62301,-0.057 c -0.89266,-0.031 -2.17864,-0.1104 -2.85773,-0.1762 z"
             id="path1789" />
          <path
             style="fill:#000000;stroke-width:0.352778"
             d="m -63.7576,-1040.4309 c -0.42196,-1.8918 -0.96041,-4.2334 -1.19656,-5.2035 l -0.42936,-1.7639 -2.97755,-0.1094 c -1.63764,-0.06 -6.84571,0.1462 -11.57348,0.4586 -4.72777,0.3125 -8.67583,0.4883 -8.77348,0.3906 -0.0976,-0.098 0.11928,-2.7646 0.48206,-5.9267 0.54277,-4.731 0.65782,-8.3242 0.64961,-20.2884 -0.01,-14.4234 -0.004,-14.5379 0.70556,-14.3889 0.39354,0.083 2.39842,0.4138 4.45528,0.7357 l 3.73976,0.5854 0.21156,5.866 c 0.11636,3.2263 0.12366,9.9791 0.0162,15.0063 l -0.19535,9.1403 4.50032,-0.2281 c 2.47518,-0.1254 4.55364,-0.2814 4.6188,-0.3465 0.48276,-0.4828 0.88202,-10.6135 0.72352,-18.3586 -0.10263,-5.0156 -0.10101,-9.9487 0.004,-10.9623 l 0.19022,-1.8431 3.57301,1.1796 c 1.96516,0.6488 3.93954,1.2956 4.38751,1.4374 l 0.81448,0.2577 -0.0285,13.8788 -0.0285,13.8789 1.38636,-0.2343 1.38635,-0.2342 0.21103,2.7596 c 0.47631,6.2285 0.95585,9.3248 2.08011,13.431 l 1.18322,4.3216 h -4.67434 -4.67434 l -0.76719,-3.4396 z"
             id="path1791" />
          <path
             style="fill:#000000;stroke-width:0.352778"
             d="m -46.531803,-1046.2316 c -0.6791,-0.15 -2.46504,-0.474 -3.96875,-0.72 l -2.73403,-0.4472 v -2.0889 c 0,-5.805 -1.52954,-21.244 -2.98108,-30.0909 -0.47536,-2.8972 -0.83252,-5.2935 -0.79369,-5.3252 0.0388,-0.032 2.24317,-0.1282 4.89853,-0.2147 4.65957,-0.1517 4.83397,-0.1317 5.00133,0.5749 0.0954,0.4027 0.34849,3.1927 0.5625,6.2001 1.08108,15.1921 1.15726,15.9521 1.55294,15.4929 0.76068,-0.8829 4.97305,-8.6884 8.37005,-15.5095 3.48292,-6.9937 4.34588,-8.4726 4.83849,-8.292 0.32975,0.1209 2.44736,0.9495 4.70581,1.8412 l 4.10627,1.6213 0.16841,9.9196 c 0.12821,7.5521 0.39496,11.9284 1.11765,18.3364 0.52209,4.6293 0.86964,8.4964 0.77234,8.5937 -0.0973,0.097 -2.10173,-0.03 -4.45429,-0.2829 -3.1785,-0.3418 -4.34992,-0.601 -4.55972,-1.009 -0.15528,-0.3021 -0.57518,-4.8751 -0.93311,-10.1623 -0.35793,-5.2873 -0.73596,-9.6056 -0.84007,-9.5962 -0.10412,0.01 -1.90262,2.9065 -3.99668,6.4382 -2.09405,3.5316 -4.83708,7.8499 -6.09561,9.5961 -1.99544,2.7688 -2.26231,3.3218 -2.08567,4.3216 0.18123,1.0257 0.11727,1.1428 -0.60717,1.1111 -0.44535,-0.02 -1.36535,-0.1582 -2.04445,-0.3083 z"
             id="path1793" />
          <path
             style="fill:#000000;stroke-width:0.352778"
             d="m -6.0092633,-1048.8069 c -1.9341,-1.3844 -3.58296,-2.5753 -3.66414,-2.6464 -0.0812,-0.071 1.22862,-3.3437 2.91067,-7.2725 1.68204,-3.9287 3.05815,-7.3086 3.05801,-7.5108 -1.4e-4,-0.2023 -1.47794,-2.2171 -3.28401,-4.4773 -3.9585097,-4.954 -9.2174297,-12.2283 -8.9985597,-12.4472 0.26327,-0.2633 8.3918997,-4.0516 8.6710297,-4.0411 0.14295,0 1.26703,1.9017 2.49796,4.2141 2.31807,4.3547 4.80163996,8.0206 5.09835996,7.5256 0.53295,-0.8892 2.00025004,-6.3092 2.21006004,-8.1637 0.13532,-1.196 0.35132,-2.1746 0.47999,-2.1746 0.50212,0 9.3015503,1.7479 9.4260103,1.8723 0.0727,0.073 -0.25617,1.6631 -0.73081,3.5342 -0.86031,3.3914 -2.7557603,8.1998 -4.9563903,12.5732 -0.88201,1.7529 -5.73583004,13.7103 -8.4895,20.914 -0.12979,0.3396 -0.34313,0.6174 -0.47407,0.6174 -0.13094,0 -1.82052,-1.1328 -3.75461,-2.5172 z"
             id="path1795" />
          <path
             style="fill:#000000;stroke-width:0.352778"
             d="m 35.981257,-1047.7664 c -2.01344,-0.2585 -3.7011,-0.516 -3.75035,-0.5722 -0.0492,-0.056 -0.26077,-2.0576 -0.47006,-4.4475 l -0.38053,-4.3453 -1.81306,-2.0929 c -0.99719,-1.1511 -1.94821,-2.0928 -2.11338,-2.0928 -0.68733,0 -3.14415,3.4806 -5.53484,7.8413 -1.40446,2.5618 -2.60047,4.7986 -2.65781,4.9706 -0.0995,0.2984 -8.28044,-2.0553 -8.79319,-2.5299 -0.34201,-0.3165 6.57976,-11.7585 9.15855,-15.1395 l 2.11645,-2.7749 -1.57644,-2.0928 c -0.86703,-1.1511 -2.85385,-3.9972 -4.41513,-6.3246 l -2.8387,-4.2318 3.31048,-3.0842 c 1.82076,-1.6964 3.41445,-3.0862 3.54152,-3.0885 0.12708,0 1.30349,1.7819 2.61426,3.9647 2.76803,4.6096 6.32042,9.9042 7.05325,10.5124 0.66377,0.5508 0.66065,0.036 -0.0493,-8.1282 -0.30672,-3.5275 -0.48683,-6.4844 -0.40024,-6.571 0.0866,-0.087 2.32191,-0.049 4.96739,0.084 l 4.80996,0.2414 v 4.6556 c 0,2.5606 0.10021,5.8411 0.22269,7.2901 l 0.2227,2.6344 1.48771,-1.6111 c 1.71664,-1.859 4.805,-6.421 7.7776,-11.4888 1.13809,-1.9403 2.11082,-3.5872 2.16161,-3.6599 0.11616,-0.1662 1.74238,1.1973 4.77796,4.0059 l 2.36277,2.1861 -1.61994,2.4381 c -0.89097,1.3409 -2.86897,4.2091 -4.39557,6.3736 l -2.77564,3.9356 2.21703,2.9436 c 2.21257,2.9377 9.08053,14.074 9.08053,14.724 0,0.1886 -0.27782,0.4225 -0.61736,0.5197 -0.33955,0.097 -2.22246,0.6636 -4.18424,1.2585 -1.96179,0.595 -3.65163,1.0817 -3.7552,1.0817 -0.10358,0 -1.32909,-2.1034 -2.72338,-4.6743 -2.57191,-4.7422 -5.03499,-8.3785 -5.67536,-8.3785 -0.35413,0 -2.36232,2.1151 -2.92611,3.0819 -0.25912,0.4443 0.33286,7.1406 1.04519,11.823 0.23645,1.5543 0.46067,1.523 -5.46184,0.7625 z"
             id="path1807" />
          <path
             style="fill:#000000;stroke-width:0.352778"
             d="m 70.361197,-1044.5153 c -1.52912,-0.1613 -2.84055,-0.3536 -2.9143,-0.4273 -0.32339,-0.3234 -0.84907,-7.9567 -1.24976,-18.1474 l -0.43347,-11.0243 h -2.57293 c -1.41511,0 -2.57293,-0.1367 -2.57293,-0.3037 0,-0.6237 1.38748,-9.3153 1.50596,-9.4337 0.0678,-0.068 2.54891,0.1416 5.51347,0.4654 5.06504,0.5533 5.73148,0.5521 11.05073,-0.02 3.11335,-0.3348 5.69717,-0.5639 5.74182,-0.5091 0.1297,0.1592 -0.91851,8.8974 -1.08759,9.0665 -0.0841,0.084 -1.87717,0.2239 -3.9846,0.3108 l -3.83169,0.1578 -0.2221,2.125 c -0.5952,5.6946 -0.19507,15.6924 1.04451,26.0986 l 0.24163,2.0285 -1.72426,-0.047 c -0.94835,-0.026 -2.97537,-0.1789 -4.50449,-0.3402 z"
             id="path1809" />
          <path
             id="path1811"
             style="fill:#000000;stroke-width:0.352778"
             d="m 197.33127,-1045.99 c -2.32051,-0.9261 -4.26753,-1.8291 -4.32671,-2.0067 -0.10605,-0.3181 3.12819,-10.0492 6.5457,-19.6945 0.96247,-2.7163 2.62557,-7.0026 3.69578,-9.525 l 1.94584,-4.5861 4.35286,-1.4823 c 2.39407,-0.8154 4.52927,-1.49 4.74487,-1.4994 0.41732,-0.018 0.57816,0.3617 4.55124,10.7428 1.41091,3.6866 3.70915,9.2428 5.10721,12.3473 1.39805,3.1044 3.3076,7.4999 4.24344,9.7677 l 1.70153,4.1232 -0.94216,0.1946 c -1.40106,0.2894 -7.58368,1.2572 -8.04163,1.2589 -0.21819,7e-4 -0.99958,-1.6058 -1.73643,-3.5702 l -1.33973,-3.5717 -3.37885,0.2366 c -4.10495,0.2874 -9.96651,1.1824 -10.36698,1.5829 -0.25024,0.2502 -0.99622,2.9308 -1.80066,6.4703 -0.12127,0.5336 -0.33652,0.9534 -0.47835,0.9328 -0.14182,-0.021 -2.15646,-0.7951 -4.47697,-1.7212 z m 16.68852,-16.0613 c 0.0929,-0.093 -0.75327,-2.2418 -1.88042,-4.7753 -1.12714,-2.5335 -2.17049,-4.4789 -2.31856,-4.323 -0.14806,0.1559 -0.85989,2.1884 -1.58184,4.5168 -0.72195,2.3283 -1.3981,4.4574 -1.50257,4.7312 -0.15949,0.4181 0.39526,0.4596 3.46226,0.2586 2.0087,-0.1317 3.72821,-0.3154 3.82113,-0.4083 z" />
          <path
             style="fill:#000000;stroke-width:0.352778"
             d="m 136.35139,-1044.9351 c -4.89729,-1.6698 -9.10536,-5.5217 -11.57681,-10.597 -4.17634,-8.5763 -3.22458,-17.8878 2.40367,-23.516 4.45885,-4.4589 11.94827,-6.5069 18.88268,-5.1636 2.89712,0.5613 8.81945,3.2111 8.81945,3.9462 0,0.2085 -1.45229,1.9265 -3.22731,3.8178 l -3.22731,3.4387 -1.35881,-0.6832 c -2.16809,-1.09 -4.91971,-1.5995 -7.31158,-1.3539 -2.91567,0.2994 -6.18795,1.9249 -7.40209,3.6769 -3.53129,5.0956 -0.32186,14.6708 5.88625,17.5613 3.1937,1.487 6.83531,0.9443 11.29069,-1.6827 0.95232,-0.5615 1.77372,-0.974 1.82533,-0.9167 0.0516,0.057 0.59768,1.9299 1.21347,4.1612 0.6158,2.2313 1.18834,4.2658 1.27232,4.521 0.18587,0.565 -3.36723,2.2401 -6.44063,3.0365 -3.21672,0.8335 -8.20844,0.7222 -11.04932,-0.2465 z"
             id="path1813" />
          <path
             id="path1815"
             style="fill:#000000;stroke-width:0.352778"
             d="m 168.26808,-1044.6076 c -0.38805,-0.2147 -2.24386,-1.2454 -4.12401,-2.2904 l -3.41846,-1.9 1.95764,-2.726 c 1.0767,-1.4993 2.51061,-3.8228 3.18648,-5.1632 1.09758,-2.1769 1.16656,-2.472 0.64586,-2.7634 -1.47782,-0.8271 -3.06569,-2.6034 -3.966,-4.4368 -0.91397,-1.8611 -0.98347,-2.3067 -0.97292,-6.2376 0.0202,-7.4961 2.04133,-11.564 6.80889,-13.7035 2.98231,-1.3384 4.67633,-1.5718 12.22975,-1.6853 l 6.70277,-0.1007 0.055,3.5114 c 0.15764,10.0608 0.54482,20.1022 1.00594,26.0892 0.28395,3.6865 0.51858,7.1985 0.52141,7.8045 l 0.005,1.1017 -3.2632,0.5858 c -1.79475,0.3221 -3.76271,0.6744 -4.37323,0.7828 -1.06263,0.1885 -1.1186,0.1391 -1.31032,-1.1584 -0.11015,-0.7454 -0.30441,-3.3794 -0.43169,-5.8532 l -0.23143,-4.4979 -1.28048,0.013 -1.28048,0.012 -3.66418,6.5138 c -2.0153,3.5827 -3.76155,6.5091 -3.88056,6.5032 -0.11901,-0.01 -0.53388,-0.1864 -0.92193,-0.4011 z m 11.09416,-21.5487 c -0.0101,-0.2425 -0.29525,-2.5047 -0.63369,-5.0271 l -0.61535,-4.5861 -2.33244,0.026 c -3.55531,0.04 -5.0583,1.3295 -5.45507,4.6797 -0.45812,3.868 1.25277,5.2298 6.67364,5.312 1.69793,0.026 2.37599,-0.09 2.36291,-0.4048 z" />
          <path
             id="path1817"
             style="fill:#000000;stroke-width:0.352778"
             d="m 89.045951,-1046.1382 c -2.32051,-0.9262 -4.26753,-1.8291 -4.32671,-2.0067 -0.10605,-0.3181 3.12819,-10.0492 6.5457,-19.6945 0.96247,-2.7164 2.625573,-7.0026 3.695783,-9.525 l 1.94584,-4.5861 4.352856,-1.4824 c 2.39407,-0.8153 4.52927,-1.49 4.74487,-1.4993 0.41732,-0.018 0.57816,0.3617 4.55124,10.7428 1.41091,3.6865 3.70915,9.2428 5.10721,12.3472 1.39805,3.1045 3.3076,7.4999 4.24344,9.7677 l 1.70153,4.1233 -0.94216,0.1946 c -1.40106,0.2894 -7.58368,1.2572 -8.04163,1.2589 -0.21819,7e-4 -0.99958,-1.6059 -1.73643,-3.5703 l -1.33973,-3.5716 -3.37885,0.2366 c -4.10495,0.2874 -9.966506,1.1824 -10.366976,1.5829 -0.25024,0.2502 -0.99622,2.9307 -1.80066,6.4703 -0.12127,0.5336 -0.33652,0.9533 -0.47835,0.9328 -0.141823,-0.021 -2.156463,-0.7951 -4.476973,-1.7212 z m 16.688519,-16.0613 c 0.0929,-0.093 -0.75327,-2.2418 -1.88042,-4.7754 -1.12714,-2.5335 -2.17049,-4.4788 -2.31856,-4.3229 -0.14806,0.1559 -0.85989,2.1884 -1.581836,4.5168 -0.72195,2.3283 -1.3981,4.4573 -1.50257,4.7312 -0.15949,0.4181 0.39526,0.4595 3.462256,0.2586 2.0087,-0.1317 3.72821,-0.3154 3.82113,-0.4083 z" />
          <path
             style="fill:#000000;stroke-width:0.352778"
             d="m 241.03275,-1044.9186 c -0.6791,-0.15 -2.46504,-0.474 -3.96875,-0.72 l -2.73403,-0.4472 v -2.0889 c 0,-5.805 -1.52954,-21.2441 -2.98108,-30.0909 -0.47536,-2.8972 -0.83252,-5.2936 -0.79369,-5.3252 0.0388,-0.032 2.24317,-0.1283 4.89853,-0.2147 4.65957,-0.1517 4.83397,-0.1317 5.00133,0.5749 0.0954,0.4026 0.34849,3.1927 0.5625,6.2001 1.08108,15.192 1.15726,15.9521 1.55294,15.4928 0.76068,-0.8829 4.97305,-8.6883 8.37005,-15.5095 3.48292,-6.9937 4.34588,-8.4726 4.83849,-8.2919 0.32975,0.1209 2.44736,0.9494 4.70581,1.8411 l 4.10627,1.6213 0.16841,9.9197 c 0.12821,7.5521 0.39496,11.9284 1.11765,18.3364 0.52209,4.6292 0.86964,8.4964 0.77234,8.5937 -0.0973,0.097 -2.10173,-0.03 -4.45429,-0.283 -3.1785,-0.3417 -4.34992,-0.6009 -4.55972,-1.009 -0.15528,-0.302 -0.57518,-4.875 -0.93311,-10.1623 -0.35793,-5.2872 -0.73596,-9.6055 -0.84007,-9.5962 -0.10412,0.01 -1.90262,2.9066 -3.99668,6.4382 -2.09405,3.5317 -4.83708,7.85 -6.09561,9.5962 -1.99544,2.7688 -2.26231,3.3217 -2.08567,4.3215 0.18123,1.0258 0.11727,1.1428 -0.60717,1.1111 -0.44535,-0.019 -1.36535,-0.1582 -2.04445,-0.3082 z"
             id="path1819" />
        </g>
      </g>
    </g>
  </g>
</svg>
